PathFileType	4	(X/Y/Z)	RBDS024static.trc
DataRate	CameraRate	NumFrames	NumMarkers	Units	OrigDataRate	OrigDataStartFrame	OrigNumFrames
150.000000	150.000000	4	48	mm	150.000000	93	150
Frame#	Time	L.Ankle			L.Ankle.Medial			L.ASIS			L.GTR			L.Heel.Bottom			L.Heel.Lateral			L.Heel.Top			L.HF			L.Iliac.Crest			L.Knee			L.Knee.Medial			L.MT1			L.MT2			L.MT5			L.PSIS			L.Shank.Bottom.Lateral			L.Shank.Bottom.Medial			L.Shank.Top.Lateral			L.Shank.Top.Medial			L.Thigh.Bottom.Lateral			L.Thigh.Bottom.Medial			L.Thigh.Top.Lateral			L.Thigh.Top.Medial			L.TT			R.Ankle			R.Ankle.Medial			R.ASIS			R.GTR			R.Heel.Bottom			R.Heel.Lateral			R.Heel.Top			R.HF			R.Iliac.Crest			R.Knee			R.Knee.Medial			R.MT1			R.MT2			R.MT5			R.PSIS			R.Shank.Bottom.Lateral			R.Shank.Bottom.Medial			R.Shank.Top.Lateral			R.Shank.Top.Medial			R.Thigh.Bottom.Lateral			R.Thigh.Bottom.Medial			R.Thigh.Top.Lateral			R.Thigh.Top.Medial			R.TT			
		X1	Y1	Z1	X2	Y2	Z2	X3	Y3	Z3	X4	Y4	Z4	X5	Y5	Z5	X6	Y6	Z6	X7	Y7	Z7	X8	Y8	Z8	X9	Y9	Z9	X10	Y10	Z10	X11	Y11	Z11	X12	Y12	Z12	X13	Y13	Z13	X14	Y14	Z14	X15	Y15	Z15	X16	Y16	Z16	X17	Y17	Z17	X18	Y18	Z18	X19	Y19	Z19	X20	Y20	Z20	X21	Y21	Z21	X22	Y22	Z22	X23	Y23	Z23	X24	Y24	Z24	X25	Y25	Z25	X26	Y26	Z26	X27	Y27	Z27	X28	Y28	Z28	X29	Y29	Z29	X30	Y30	Z30	X31	Y31	Z31	X32	Y32	Z32	X33	Y33	Z33	X34	Y34	Z34	X35	Y35	Z35	X36	Y36	Z36	X37	Y37	Z37	X38	Y38	Z38	X39	Y39	Z39	X40	Y40	Z40	X41	Y41	Z41	X42	Y42	Z42	X43	Y43	Z43	X44	Y44	Z44	X45	Y45	Z45	X46	Y46	Z46	X47	Y47	Z47	X48	Y48	Z48	

94	0.62	718.3886108398438	108.3162536621094	1047.076049804688	736.361328125	115.3207931518555	1133.766967773438	906.1290893554688	1014.596984863281	1097.177001953125	812.5193481445313	922.4777221679688	1031.552734375	645.6685180664063	41.10321426391602	1090.183349609375	667.9542846679688	61.45159530639648	1047.864501953125	654.7152709960938	85.34491729736328	1091.609130859375	773.3595581054688	468.3610229492188	1036.4521484375	811.7449951171875	1083.462890625	1044.353271484375	785.6712646484375	530.0445556640625	1040.9462890625	767.650146484375	517.9694213867188	1166.482788085938	869.5819091796875	54.63426208496094	1128.137573242188	876.0069580078125	66.14579772949219	1089.156494140625	834.5762939453125	49.08944702148438	1013.25830078125	720.9507446289063	1055.362670898438	1160.18359375	728.2471923828125	183.0863647460938	1039.259643554688	683.2689819335938	187.9397430419922	1063.773559570313	730.8155517578125	262.0257568359375	1021.021545410156	685.1583862304688	271.1902770996094	1047.447998046875	780.666748046875	654.4025268554688	1022.660583496094	719.8748779296875	656.13037109375	1060.787109375	778.46630859375	764.8248901367188	1020.701110839844	723.7777099609375	766.7216186523438	1062.096557617188	823.3528442382813	450.4602966308594	1090.6669921875	705.5829467773438	109.447135925293	1410.871948242188	726.7691040039063	115.2728652954102	1322.4814453125	895.080322265625	1011.650146484375	1336.715454101563	805.5991821289063	923.9909057617188	1396.18603515625	635.5657958984375	43.63587951660156	1366.42431640625	666.7615966796875	63.08373641967773	1411.392456054688	644.0167236328125	87.36493682861328	1366.0068359375	776.03125	475.4936218261719	1408.870849609375	821.5819091796875	1081.702514648438	1384.830932617188	794.5032348632813	537.1444702148438	1400.523315429688	776.7008056640625	515.0676879882813	1275.5439453125	852.8045043945313	56.80425643920898	1323.875122070313	860.955322265625	73.50910949707031	1369.096069335938	827.9483642578125	51.7054557800293	1440.76318359375	721.654052734375	1052.015014648438	1263.600341796875	705.767333984375	191.6962890625	1417.480224609375	667.6858520507813	200.0433502197266	1377.318115234375	707.252197265625	272.3662109375	1429.053588867188	671.7073364257813	279.5796813964844	1389.2421875	771.7195434570313	656.1502075195313	1413.034790039063	715.0197143554688	657.275390625	1366.086303710938	770.64453125	765.9577026367188	1412.22900390625	717.735595703125	766.7329711914063	1367.486206054688	827.0236206054688	449.6924133300781	1359.030517578125	
95	0.6266666666666667	718.4008178710938	108.3054275512695	1047.076538085938	736.3491821289063	115.3186798095703	1133.7705078125	906.1146850585938	1014.607971191406	1097.1728515625	812.4991455078125	922.4686279296875	1031.548583984375	645.6788940429688	41.10515213012695	1090.187866210938	667.9505004882813	61.44678497314453	1047.860473632813	654.7072143554688	85.34247589111328	1091.601440429688	773.354248046875	468.3518371582031	1036.457153320313	811.717529296875	1083.477172851563	1044.353881835938	785.662353515625	530.0462036132813	1040.9326171875	767.6436157226563	517.974609375	1166.488525390625	869.5838623046875	54.63551330566406	1128.149536132813	876.0139770507813	66.15225219726563	1089.171630859375	834.5795288085938	49.0881462097168	1013.257202148438	720.9099731445313	1055.3564453125	1160.182006835938	728.2379150390625	183.0779876708984	1039.263061523438	683.2673950195313	187.9429779052734	1063.773315429688	730.821533203125	262.0281066894531	1021.019165039063	685.1525268554688	271.1893310546875	1047.448120117188	780.6487426757813	654.4021606445313	1022.654602050781	719.8673095703125	656.1309814453125	1060.779296875	778.449462890625	764.8287963867188	1020.694580078125	723.7667846679688	766.7247314453125	1062.097778320313	823.3502807617188	450.4594421386719	1090.666748046875	705.604736328125	109.4515914916992	1410.871826171875	726.77685546875	115.2752838134766	1322.47900390625	895.0567626953125	1011.65625	1336.703735351563	805.587646484375	923.9986572265625	1396.187744140625	635.5637817382813	43.63998794555664	1366.421875	666.761962890625	63.09440612792969	1411.389038085938	644.021484375	87.36331939697266	1366.0048828125	776.0419921875	475.4869995117188	1408.868774414063	821.5604248046875	1081.703247070313	1384.828857421875	794.4951782226563	537.142578125	1400.531860351563	776.7175903320313	515.06005859375	1275.53759765625	852.8133544921875	56.80577087402344	1323.875	860.9591674804688	73.50568389892578	1369.1083984375	827.9404907226563	51.69900131225586	1440.761596679688	721.6323852539063	1052.005249023438	1263.593017578125	705.3575439453125	191.6652221679688	1417.644165039063	667.731201171875	199.4408721923828	1376.901123046875	707.2507934570313	272.3707580566406	1429.060180664063	671.7109375	279.5820617675781	1389.2412109375	771.7115478515625	656.1575317382813	1413.037719726563	715.014404296875	657.2767333984375	1366.087280273438	770.6302490234375	765.9577026367188	1412.224853515625	717.7294921875	766.7308959960938	1367.48388671875	827.0149536132813	449.6865234375	1359.027587890625	
96	0.6333333333333334	718.3997192382813	108.3132476806641	1047.076416015625	736.3616943359375	115.3206787109375	1133.767456054688	906.0784912109375	1014.615600585938	1097.172973632813	812.4793701171875	922.4705810546875	1031.543579101563	645.6761474609375	41.09900283813477	1090.18603515625	667.9603271484375	61.44881057739258	1047.865112304688	654.7232055664063	85.34248352050781	1091.604248046875	773.3540649414063	468.3569030761719	1036.463989257813	811.6776123046875	1083.47802734375	1044.355224609375	785.6629638671875	530.034912109375	1040.937133789063	767.6447143554688	517.971435546875	1166.4794921875	869.5780639648438	54.63459396362305	1128.1552734375	876.0053100585938	66.14707946777344	1089.162231445313	834.572509765625	49.09475326538086	1013.246459960938	720.88916015625	1055.36181640625	1160.180541992188	728.2481689453125	183.0838012695313	1039.260620117188	683.2658081054688	187.9406433105469	1063.77197265625	730.8139038085938	262.0325012207031	1021.028137207031	685.155029296875	271.1872863769531	1047.45556640625	780.6476440429688	654.4039916992188	1022.654602050781	719.8587646484375	656.12890625	1060.783447265625	778.4410400390625	764.8264770507813	1020.6943359375	723.7535400390625	766.7210693359375	1062.088745117188	823.3385620117188	450.4542846679688	1090.669799804688	705.593505859375	109.4579772949219	1410.878662109375	726.7762451171875	115.269889831543	1322.479248046875	895.029296875	1011.661987304688	1336.712768554688	805.5665893554688	923.994384765625	1396.18994140625	635.5621948242188	43.64370346069336	1366.42041015625	666.7594604492188	63.09453964233398	1411.387573242188	644.020263671875	87.36746215820313	1366.0107421875	776.0418701171875	475.485595703125	1408.873168945313	821.5362548828125	1081.714477539063	1384.830322265625	794.5011596679688	537.1405029296875	1400.537475585938	776.7284545898438	515.0586547851563	1275.535400390625	852.810546875	56.80720138549805	1323.875122070313	860.9435424804688	73.5040283203125	1369.10986328125	827.9398803710938	51.71040344238281	1440.757568359375	721.5991821289063	1052.013793945313	1263.58642578125	705.3576049804688	191.6618347167969	1417.645263671875	667.7297973632813	199.4465637207031	1376.893310546875	707.2555541992188	272.3652038574219	1429.061279296875	671.701416015625	279.587890625	1389.245849609375	771.708984375	656.1546630859375	1413.02880859375	715.0065307617188	657.2747192382813	1366.07958984375	770.6231689453125	765.9654541015625	1412.22265625	717.7136840820313	766.725341796875	1367.482543945313	827.02392578125	449.684814453125	1359.023559570313	
97	0.64	718.4041137695313	108.3172378540039	1047.076416015625	736.3515014648438	115.3192367553711	1133.775024414063	906.0596313476563	1014.620239257813	1097.1630859375	812.460205078125	922.4761352539063	1031.547607421875	645.6776733398438	41.10617065429688	1090.183715820313	667.9553833007813	61.44445037841797	1047.8623046875	654.7155151367188	85.33917999267578	1091.612426757813	773.3585205078125	468.3534545898438	1036.455932617188	811.65673828125	1083.491088867188	1044.357788085938	785.6621704101563	530.0379638671875	1040.939086914063	767.6399536132813	517.9752197265625	1166.483032226563	869.578857421875	54.63510894775391	1128.152465820313	876.0076904296875	66.14713287353516	1089.176025390625	834.5881958007813	49.09646987915039	1013.267456054688	720.8596801757813	1055.356567382813	1160.182373046875	728.2447509765625	183.0813140869141	1039.261596679688	683.270751953125	187.9316864013672	1063.7705078125	730.8123779296875	262.0251770019531	1021.028442382813	685.15283203125	271.1864929199219	1047.449096679688	780.6383056640625	654.4094848632813	1022.65234375	719.84765625	656.1280517578125	1060.78857421875	778.4178466796875	764.8275146484375	1020.688110351563	723.7384643554688	766.7207641601563	1062.092529296875	823.3416748046875	450.4486083984375	1090.67041015625	705.5923461914063	109.4523010253906	1410.878051757813	726.777587890625	115.2742462158203	1322.491455078125	895.0062866210938	1011.668029785156	1336.716430664063	805.5540161132813	923.9981079101563	1396.19384765625	635.570556640625	43.64324188232422	1366.419677734375	666.7529907226563	63.09363555908203	1411.388793945313	644.0240478515625	87.36451721191406	1366.008056640625	776.0354614257813	475.4950256347656	1408.87890625	821.5177001953125	1081.7080078125	1384.82470703125	794.4882202148438	537.1453857421875	1400.548217773438	776.7422485351563	515.0613403320313	1275.550415039063	852.8198852539063	56.80899810791016	1323.886108398438	860.951416015625	73.50855255126953	1369.109741210938	827.9452514648438	51.7003173828125	1440.758666992188	721.5770263671875	1052.011596679688	1263.588623046875	705.3523559570313	191.6753082275391	1417.647338867188	667.7402954101563	199.4430389404297	1376.900512695313	707.2505493164063	272.3765869140625	1429.060791015625	671.7039794921875	279.5892944335938	1389.245849609375	771.7000122070313	656.1629638671875	1413.03857421875	715.0015869140625	657.275146484375	1366.078247070313	770.6201782226563	765.9635620117188	1412.21826171875	717.70849609375	766.7249145507813	1367.483520507813	827.0201416015625	449.6822204589844	1359.031005859375	
